# xmcd CD database file
#
# Track frame offsets:
#	150
#	14846
#	29167
#	42631
#	61194
#	81985
#	97696
#	114533
#	132231
#	150526
#
# Disc length: 2230 seconds
#
# Revision: 1
# Processed by: cddbd v1.5.2PL0 Copyright (c) Steve Scherf et al.
# Submitted via: CDex 1.51
#
DISCID=8308b40a
DTITLE=Brody. Dean - Trail in Life
DYEAR=2010
DGENRE=Country
TTITLE0=People Know You by Your First Name
TTITLE1=Roll That Barrel Out
TTITLE2=Little Yellow Blanket
TTITLE3=Angelina
TTITLE4=Trail in Life
TTITLE5=Sunday Drive
TTITLE6=Kitchen Song, The
TTITLE7=Wildflower
TTITLE8=Gypsy Girl
TTITLE9=Porch, The
EXTD=YEAR: 2010
EXTT0=
EXTT1=
EXTT2=
EXTT3=
EXTT4=
EXTT5=
EXTT6=
EXTT7=
EXTT8=
EXTT9=
PLAYORDER=
